HIERARCHY
ROOT Hips
{
    OFFSET 0.0 0.0 0.0
    CHANNELS 6 Xposition Yposition Zposition Zrotation Xrotation Yrotation
    JOINT LeftHipJoint
    {
        OFFSET 0.1 0.0 0.0
        CHANNELS 3 Zrotation Xrotation Yrotation
        JOINT LeftUpLeg
        {
            OFFSET 0.1321136368552992 0.0 0.0
            CHANNELS 3 Zrotation Xrotation Yrotation
            JOINT LeftLeg
            {
                OFFSET 0.0 0.0 -0.42323554889782306
                CHANNELS 3 Zrotation Xrotation Yrotation
                JOINT LeftFoot
                {
                    OFFSET 0.0 0.0 -0.37456495681001506
                    CHANNELS 3 Zrotation Xrotation Yrotation
                    End Site
                    {
                        OFFSET 0.0 -0.1 0.0
                    }
                }
            }
        }
    }
    JOINT LowerBack
    {
        OFFSET 0.0 0.0 0.1
        CHANNELS 3 Zrotation Xrotation Yrotation
        JOINT Spine
        {
            OFFSET 0.0 0.0 0.33786059285276526
            CHANNELS 3 Zrotation Xrotation Yrotation
            JOINT Spine1
            {
                OFFSET 0.0 0.0 0.3364888562973147
                CHANNELS 3 Zrotation Xrotation Yrotation
                JOINT LeftShoulder
                {
                    OFFSET 0.1 0.0 0.0
                    CHANNELS 3 Zrotation Xrotation Yrotation
                    JOINT LeftArm
                    {
                        OFFSET 0.22132056768862945 0.0 0.0
                        CHANNELS 3 Zrotation Xrotation Yrotation
                        JOINT LeftForeArm
                        {
                            OFFSET 0.3353593833926317 0.0 0.0
                            CHANNELS 3 Zrotation Xrotation Yrotation
                            JOINT LeftHand
                            {
                                OFFSET 0.2810055087121426 0.0 0.0
                                CHANNELS 3 Zrotation Xrotation Yrotation
                                End Site
                                {
                                    OFFSET 0.1 0.0 0.0
                                }
                            }
                        }
                    }
                }
                JOINT Neck
                {
                    OFFSET 0.0 0.0 0.1
                    CHANNELS 3 Zrotation Xrotation Yrotation
                    JOINT Neck1
                    {
                        OFFSET 0.0 0.0 0.18471829611827914
                        CHANNELS 3 Zrotation Xrotation Yrotation
                        End Site
                        {
                            OFFSET 0.0 0.0 0.17504299680794294
                        }
                    }
                }
                JOINT RightShoulder
                {
                    OFFSET -0.1 0.0 0.0
                    CHANNELS 3 Zrotation Xrotation Yrotation
                    JOINT RightArm
                    {
                        OFFSET -0.22132056768862945 0.0 0.0
                        CHANNELS 3 Zrotation Xrotation Yrotation
                        JOINT RightForeArm
                        {
                            OFFSET -0.3353593833926317 0.0 0.0
                            CHANNELS 3 Zrotation Xrotation Yrotation
                            JOINT RightHand
                            {
                                OFFSET -0.2810055087121426 0.0 0.0
                                CHANNELS 3 Zrotation Xrotation Yrotation
                                End Site
                                {
                                    OFFSET -0.1 0.0 0.0
                                }
                            }
                        }
                    }
                }
            }
        }
    }
    JOINT RightHipJoint
    {
        OFFSET -0.1 0.0 0.0
        CHANNELS 3 Zrotation Xrotation Yrotation
        JOINT RightUpLeg
        {
            OFFSET -0.1321136368552992 0.0 0.0
            CHANNELS 3 Zrotation Xrotation Yrotation
            JOINT RightLeg
            {
                OFFSET 0.0 0.0 -0.42323554889782306
                CHANNELS 3 Zrotation Xrotation Yrotation
                JOINT RightFoot
                {
                    OFFSET 0.0 0.0 -0.37456495681001506
                    CHANNELS 3 Zrotation Xrotation Yrotation
                    End Site
                    {
                        OFFSET 0.0 -0.1 0.0
                    }
                }
            }
        }
    }
}
MOTION
Frames: 8
Frame Time: 0.03333333333333333
0.08718658238649368 -0.09834220260381699 -1.2043446363986498e-17 19.559497678170832 -80.93108034304367 20.299748241239726 -1.987846675914698e-16 6.3611093629270335e-15 1.1034765745125397e-32 5.862283038846881 9.560186569084703 0.8813075395025698 0.110165541470977 -2.793435602045928 0.9390627306760775 2.2069531490250793e-32 6.3611093629270335e-15 -3.975693351829396e-16 -1.987846675914698e-16 6.3611093629270335e-15 1.1034765745125397e-32 0.12266976561562257 6.898767581952316 -1.0071623310039703 -2.753480921858849 1.2876014016217878e-14 1.2342676925032224e-16 3.8825130388959056e-19 6.3611093629270335e-15 -2.0189067802258653e-17 -30.060659019390894 14.077104046583534 85.51353066122334 -28.90723954251016 -1.012905237484208e-14 1.381174182930275e-14 0.0 0.0 0.0 3.8825130388959056e-19 6.3611093629270335e-15 -2.0189067802258653e-17 -4.147438679358106 2.467243556543529 0.4463781565425026 3.8825130388959056e-19 6.3611093629270335e-15 -2.0189067802258653e-17 41.89868821039002 15.740483992117548 -85.00210023496008 22.480476854748645 -1.0598568581553467e-14 -4.3792018776531785e-15 0.0 0.0 0.0 -1.987846675914698e-16 6.3611093629270335e-15 1.1034765745125397e-32 -5.759915931841485 4.5123239645925 -4.362602017189355 0.05665506117045115 5.35276538810346 6.181749224896672 0.0 0.0 0.0
0.07800287008285522 -0.0998065397143364 0.0010211458429694054 21.57168530844735 -81.06895439084583 21.78787024068861 1.987846675914698e-16 0.0 0.0 6.5810556949108525 9.254942925457533 0.3182459910542193 0.08261769101700558 -1.5235444845253285 1.4512124705942209 7.951386703658792e-16 0.0 0.0 1.987846675914698e-16 0.0 0.0 0.10453272990575152 7.104790473869814 -1.1829921945511268 -3.031147337348654 -6.6852632187519884e-15 7.168961954106848e-17 0.0 0.0 0.0 -30.25695366093894 14.217259762489812 85.38867328108539 -28.98880022903454 -5.362602319141297e-15 -4.671416998688712e-15 0.0 0.0 -3.1805546814635168e-15 0.0 0.0 0.0 -5.245291166384833 2.449209100548111 0.8415349714937639 0.0 0.0 0.0 41.899348903116866 15.538254067307676 -84.79725841428323 22.250943066969764 -7.162136027707564e-15 -3.453745507667748e-15 0.0 0.0 3.1805546814635168e-15 1.987846675914698e-16 0.0 0.0 -6.534265544802254 4.148166564837134 -3.289416600641593 0.17495389754519444 6.1817884035703 4.230869591649622 0.0 0.0 0.0
0.06864219903945923 -0.10191038995981216 0.000627176021225738 23.94247171513609 -80.86135999421762 23.663180921788555 3.975693351829396e-16 0.0 0.0 6.312523820914049 8.404833312133839 -0.08031480415713683 -0.018556466841106522 0.2792108461063827 1.9388921519273716 6.569133982644963e-32 -6.311413196029168e-15 1.1927080055488192e-15 3.975693351829396e-16 0.0 0.0 0.07702593650005318 6.950396784354351 -1.4293942295316533 -3.3238970682236415 -2.1197807535771192e-14 -1.1787534803960845e-16 -9.939233379573492e-17 0.0 0.0 -30.556559403382614 14.372454539910944 85.37746148427294 -28.98155844358284 7.958517315380975e-16 -3.0793746285873222e-15 -6.3611093629270335e-15 0.0 0.0 -9.939233379573492e-17 0.0 0.0 -6.008868416336621 2.4799100916652352 1.226195916432504 -9.939233379573492e-17 0.0 0.0 42.62870266528732 15.33550120748045 -84.72931706209805 21.718225793235447 3.722801274922668e-15 2.524402272022654e-15 0.0 0.0 0.0 3.975693351829396e-16 0.0 0.0 -6.349973364696837 3.738017756858811 -2.370385568632423 0.2841968224201394 6.6125586060663615 2.3588863793436277 0.0 0.0 0.0
0.0598403736948967 -0.10374609380960464 0.0005058941897004716 25.682808461786976 -80.74613758792633 24.919909602557322 3.975693351829396e-16 0.0 0.0 6.240009891299386 7.681428420720558 -0.4619778025836397 -0.16090686165134 1.9789681460135768 2.359196191730419 0.0 0.0 0.0 3.975693351829396e-16 0.0 0.0 0.037039689028790804 7.010305475351859 -1.6703286363543608 -3.4234925589902345 4.4368996938331284e-16 -1.856139604319038e-16 0.0 0.0 -1.987846675914698e-16 -31.228498806912054 14.305138506582173 85.2480748031112 -28.82730931242136 6.95259216787368e-15 -1.4970312475426328e-15 0.0 0.0 -3.1805546814635168e-15 0.0 0.0 -1.987846675914698e-16 -6.407994272071359 2.2774694068856687 1.5833901173301919 0.0 0.0 -1.987846675914698e-16 43.1399650936649 14.89194779295505 -84.48163789399531 21.017537626785693 4.5774289137542554e-15 7.237929478271246e-15 6.3611093629270335e-15 1.7655625192200634e-31 3.1805546814635168e-15 3.975693351829396e-16 0.0 0.0 -6.3144538843019395 3.712614717826103 -1.6483228156458538 0.32760795633243883 6.261562909409543 0.9755006340260732 -4.969616689786745e-17 -2.155227684594804e-35 4.969616689786745e-17
0.05213549733161926 -0.10318033397197723 0.00023132900241761137 27.488708210570607 -80.52965251090785 26.15416169362717 -3.975693351829396e-16 -1.3793457181406746e-33 3.975693351829396e-16 6.19987676251675 7.300217355929364 -0.7162511904444432 -0.2800457840210982 2.9691863016896254 2.577345190669878 -7.951386703658792e-16 0.0 0.0 -3.975693351829396e-16 -1.3793457181406746e-33 3.975693351829396e-16 -0.014927293616294754 6.920876606449535 -2.0014976125673707 -3.5452335324893482 -7.095038099757919e-16 -4.19717314011055e-16 1.102937767591391e-32 6.358003352495917e-15 -1.987846675914698e-16 -31.784137414450864 14.233202080699398 85.29549919165025 -28.76796745194319 4.581484177024663e-15 7.74192659419531e-15 0.0 0.0 0.0 1.102937767591391e-32 6.358003352495917e-15 -1.987846675914698e-16 -6.795733853549323 2.3252776174509293 2.1360667871343018 1.102937767591391e-32 6.358003352495917e-15 -1.987846675914698e-16 43.13616308376198 14.606397630004418 -84.0986662291813 20.2814443578989 -3.4108633967712004e-15 -1.005445667746793e-15 -6.3611093629270335e-15 -1.7655625192200634e-31 3.1805546814635168e-15 -3.975693351829396e-16 -1.3793457181406746e-33 3.975693351829396e-16 -6.371945518182398 3.6741524472331255 -0.8464909582604375 0.3416551173658004 5.6447937687673235 -0.3793614189827933 0.0 0.0 1.4908850069360235e-16
0.04511463642120361 -0.10127845406532288 7.855775766073417e-05 27.694953531540495 -80.43060327993709 25.920802973100937 -3.975693351829396e-16 0.0 0.0 6.072914039061289 7.668821906207012 -1.0540268668922939 -0.2660399619126216 2.618110751396149 2.482994251978453 0.0 6.3611093629270335e-15 0.0 -3.975693351829396e-16 0.0 0.0 -0.02026754690652637 6.992362117660092 -2.242556421785423 -3.406445089945476 -7.740639103928125e-15 -2.3017255424678637e-16 0.0 0.0 0.0 -32.695507433755715 14.02999885055892 85.10586618999147 -28.540892926948572 -1.568008084457576e-15 6.164824650725571e-15 0.0 0.0 -3.1805546814635168e-15 0.0 0.0 0.0 -7.665962338514872 2.1061577665948423 2.4682024089352668 0.0 0.0 0.0 43.15016785090359 13.998658436048382 -83.59886675064794 19.41827070524786 3.6713878420923284e-15 2.5986087578732626e-15 0.0 0.0 -3.1805546814635168e-15 -3.975693351829396e-16 0.0 0.0 -6.238992523684677 3.6052905378672384 -0.47366801658002716 0.3385960397069507 5.117486464367974 -1.1341442435360205 9.93923337957349e-17 0.0 0.0
0.038870587944984436 -0.0971619263291359 0.00013990863226352932 30.01621521975387 -80.15417431785973 27.666609631384446 -7.951386703658792e-16 6.3735334046515004e-15 -3.9756933518293955e-16 5.930029054723969 8.546777755142152 -0.8405161506267882 -0.12260282426808775 1.282176650775249 1.270063877764757 -7.95138670365879e-16 6.361109362927032e-15 4.4139062980501586e-32 -7.951386703658792e-16 6.3735334046515004e-15 -3.9756933518293955e-16 -0.018798709881151978 7.1342157208963295 -2.549323849930239 -3.473940747985864 1.6478351743111507e-14 4.997083684240268e-16 0.0 0.0 0.0 -33.34722080347841 13.59972609925707 84.98516284184473 -28.362833496168587 -6.946467130281667e-15 1.5251999268338068e-15 0.0 0.0 -3.1805546814635168e-15 0.0 0.0 0.0 -7.9577117158483315 1.8973647622448615 3.02476351365055 0.0 0.0 0.0 43.13212850002818 13.522287033189299 -82.94697993041498 18.488893607787812 1.1535089280031669e-14 -8.32227594695636e-15 0.0 0.0 -3.1805546814635168e-15 -7.951386703658792e-16 6.3735334046515004e-15 -3.9756933518293955e-16 -6.193855609000924 3.6134046595717497 -0.0016877603054060498 0.3226723668004842 4.41414107450617 -1.7750239446286493 0.0 0.0 -1.987846675914698e-16
0.03371661156415939 -0.09235942363739014 7.084466051309169e-05 31.907435327361483 -79.86335824917676 29.003826246297127 0.0 0.0 0.0 5.7841148129979665 9.407043294412905 -0.8143362346570051 -0.020812867513880805 0.21538875636448412 0.8517015093265996 1.5902773407317584e-15 0.0 0.0 0.0 0.0 0.0 -0.025480701566027747 7.2225440696709375 -2.7946827666297813 -3.488867341050279 1.3812183634434468e-15 -3.556879465209396e-16 -3.975693351829395e-16 6.361109362927033e-15 -3.975693351829395e-16 -33.753817547016226 13.06797647034831 84.89209472023805 -28.021037714914407 9.2519240972074e-15 -1.0803724456644699e-14 0.0 0.0 0.0 -3.975693351829395e-16 6.361109362927033e-15 -3.975693351829395e-16 -7.960196162419761 1.758000209165214 3.5546366058730277 -3.975693351829395e-16 6.361109362927033e-15 -3.975693351829395e-16 42.960379360002 13.367893128570332 -82.39621891190113 18.02421363554562 -4.137715867880019e-15 -5.784370994809323e-15 0.0 0.0 0.0 0.0 0.0 0.0 -6.148474089330189 3.5288986051907405 0.47040467465675523 0.30169341349788054 3.726889107615169 -2.3727666938499077 0.0 0.0 0.0
